<!--?xml version="1.0" standalone="no"?-->
<svg id="sw-js-blob-svg" viewBox="0 0 100 100" xmlns="http://www.w3.org/2000/svg" version="1.1">
    <defs>
        <linearGradient id="sw-gradient" x1="0" x2="1" y1="1" y2="0">
            <stop id="stop1" stop-color="rgba(255, 112, 45, 1)" offset="0%"></stop>
            <stop id="stop2" stop-color="rgba(254, 255, 0, 1)" offset="100%"></stop>
        </linearGradient>
    </defs>
    <path fill="url(#sw-gradient)"
        d="M17.7,-30.1C22.6,-27.8,26.2,-22.5,30.4,-16.9C34.7,-11.4,39.7,-5.7,40.5,0.5C41.3,6.7,37.9,13.3,33.7,18.9C29.5,24.4,24.4,28.9,18.6,31C12.9,33.1,6.4,32.8,0.7,31.5C-4.9,30.2,-9.9,27.9,-14.2,25C-18.6,22.1,-22.5,18.7,-25.2,14.4C-27.9,10.1,-29.5,5.1,-28.9,0.4C-28.3,-4.3,-25.4,-8.7,-22.9,-13.3C-20.3,-17.9,-18.1,-22.7,-14.4,-25.7C-10.6,-28.8,-5.3,-30,0.5,-30.9C6.4,-31.8,12.8,-32.5,17.7,-30.1Z"
        width="100%" height="100%" transform="translate(50 50)" stroke-width="0"
        style="transition: 0.3s;" stroke="url(#sw-gradient)"></path>
</svg>