<!--?xml version="1.0" standalone="no"?-->
              <svg id="sw-js-blob-svg" viewBox="0 0 100 100" xmlns="http://www.w3.org/2000/svg" version="1.1">
                    <defs> 
                        <linearGradient id="sw-gradient" x1="0" x2="1" y1="1" y2="0">
                            <stop id="stop1" stop-color="rgba(255, 0, 0, 1)" offset="0%"></stop>
                            <stop id="stop2" stop-color="rgba(255, 0, 229, 1)" offset="100%"></stop>
                        </linearGradient>
                    </defs>
                <path fill="url(#sw-gradient)" d="M10.9,-20.7C12.7,-17.8,11.8,-12,15,-8.1C18.2,-4.2,25.5,-2.1,30.5,2.9C35.5,7.8,38.1,15.6,33.5,17.3C29,19,17.4,14.5,10.6,12C3.8,9.4,1.9,8.9,-1.8,12C-5.6,15.2,-11.1,22,-18,24.6C-24.9,27.2,-33.1,25.5,-36.1,20.7C-39.1,15.9,-36.8,8,-35.5,0.7C-34.3,-6.5,-34,-13,-28.9,-14.1C-23.8,-15.2,-13.8,-10.9,-8.2,-11.6C-2.5,-12.2,-1.3,-17.9,1.6,-20.7C4.5,-23.6,9.1,-23.6,10.9,-20.7Z" width="100%" height="100%" transform="translate(50 50)" stroke-width="0" style="transition: 0.3s;" stroke="url(#sw-gradient)"></path>
              </svg>