<!--?xml version="1.0" standalone="no"?-->
<svg id="sw-js-blob-svg" viewBox="0 0 100 100" xmlns="http://www.w3.org/2000/svg" version="1.1">
  <defs>
    <linearGradient id="sw-gradient" x1="0" x2="1" y1="1" y2="0">
      <stop id="stop1" stop-color="rgba(45, 127, 255, 1)" offset="0%"></stop>
      <stop id="stop2" stop-color="rgba(0, 255, 159, 1)" offset="100%"></stop>
    </linearGradient>
  </defs>
  <path fill="url(#sw-gradient)"
    d="M22.1,-37.2C29.1,-34.1,35.8,-29.3,38.1,-22.8C40.5,-16.3,38.6,-8.2,37.9,-0.4C37.2,7.3,37.6,14.6,34.8,20.3C31.9,26,25.7,30,19.4,31.1C13.1,32.2,6.5,30.4,0.6,29.4C-5.4,28.4,-10.8,28.2,-17.8,27.5C-24.7,26.7,-33.2,25.4,-38.6,20.7C-43.9,16.1,-46,8,-43.3,1.6C-40.5,-4.8,-32.8,-9.7,-28.5,-16.2C-24.3,-22.7,-23.4,-30.9,-19.2,-35.6C-15.1,-40.4,-7.5,-41.6,0,-41.6C7.5,-41.5,15,-40.2,22.1,-37.2Z"
    width="100%" height="100%" transform="translate(50 50)" stroke-width="0"
    style="transition: 0.3s;" stroke="url(#sw-gradient)"></path>
</svg>